<svg width="19" height="20" viewBox="0 0 19 20" fill="none" xmlns="http://www.w3.org/2000/svg">
<path d="M12.5746 14.2884L12.9386 14.3338L13.1979 14.0744L14.8307 12.441C14.8311 12.4405 14.8316 12.4401 14.8321 12.4396C14.9489 12.3247 15.0964 12.2461 15.2569 12.2131C15.4174 12.1802 15.584 12.1944 15.7366 12.2541C15.7372 12.2543 15.7377 12.2545 15.7382 12.2547L17.7245 13.0481C17.7251 13.0483 17.7256 13.0485 17.7262 13.0488C17.8795 13.1114 18.011 13.2179 18.1042 13.355C18.1972 13.4919 18.2479 13.6531 18.25 13.8186V17.4645C18.2488 17.5764 18.2251 17.687 18.1804 17.7896C18.1353 17.893 18.0698 17.9861 17.9878 18.0635C17.9058 18.1408 17.8091 18.2007 17.7034 18.2396C17.5988 18.2781 17.4877 18.2953 17.3765 18.2901C10.6373 17.8694 6.64451 14.8236 4.24897 11.3661C1.83048 7.87554 1.01482 3.92298 0.754907 1.71707C0.742217 1.60044 0.754209 1.48244 0.790107 1.37075C0.826212 1.25842 0.885675 1.15503 0.964567 1.06737C1.04346 0.979722 1.13999 0.909793 1.2478 0.862171C1.3556 0.81455 1.47225 0.790308 1.59008 0.791031L1.59008 0.791045H1.59468H5.1212C5.28596 0.791719 5.4468 0.841589 5.5831 0.934315C5.71967 1.02722 5.82538 1.1589 5.88658 1.31246L5.88671 1.31279L6.68284 3.30757L6.68282 3.30758L6.68488 3.31261C6.74632 3.46338 6.762 3.62893 6.72995 3.78858C6.69793 3.94802 6.61974 4.09446 6.50516 4.20968C6.50501 4.20983 6.50487 4.20998 6.50472 4.21013L4.86961 5.8459L4.60299 6.11263L4.65809 6.48572L5.40004 6.37612C4.65809 6.48572 4.65815 6.48609 4.65821 6.48648L4.65834 6.48739L4.65868 6.48966L4.65965 6.49594L4.66275 6.51537C4.66536 6.53134 4.66908 6.55329 4.67403 6.58083C4.68395 6.63591 4.69886 6.71347 4.71988 6.81054C4.76191 7.00453 4.82857 7.27738 4.92905 7.60504C5.12942 8.25847 5.46751 9.14062 6.02039 10.0529C7.13373 11.8901 9.12988 13.8586 12.5746 14.2884Z" stroke="#8D8D8D" stroke-width="1.5"/>
</svg>
